# Blender 4.0.2
# www.blender.org
mtllib mesa.mtl
o Cube.003
v 0.879822 0.999977 0.722272
v 0.879822 -0.430754 0.722272
v 0.879822 0.999977 1.012779
v 0.879822 -0.430754 1.012779
v 1.310553 0.999977 0.722272
v 1.310553 -0.430754 0.722272
v 1.310553 0.999977 1.012779
v 1.310553 -0.430754 1.012779
v -2.114767 2.137672 -1.765236
v -2.114767 1.859885 -1.765236
v -2.114767 2.137672 1.488919
v -2.114767 1.859885 1.488919
v 1.918348 2.137672 -1.765236
v 1.918348 1.859885 -1.765236
v 1.918348 2.137672 1.488919
v 1.918348 1.859885 1.488919
v 0.146771 2.587696 -2.053121
v 0.146771 2.587696 -2.053121
v 0.146771 2.587696 -2.053121
v 0.146771 2.587696 -2.053121
v 0.146771 2.587696 -2.053121
v 0.146771 2.587696 -2.053121
v 0.146771 2.587696 -2.053121
v 0.146771 2.587696 -2.053121
v -1.575546 1.833528 -1.518435
v -1.434018 0.905387 -1.324895
v -1.575546 1.833528 -1.243380
v -1.434018 0.905387 -1.049840
v -1.038885 1.833528 -1.518435
v -0.897357 0.905387 -1.324895
v -1.038885 1.833528 -1.243380
v -0.897357 0.905387 -1.049840
v -1.659984 1.012325 -1.474360
v -1.659984 0.866607 -1.474360
v -1.659984 1.012325 1.182099
v -1.659984 0.866607 1.182099
v 1.514313 1.012325 -1.474360
v 1.514313 0.866607 -1.474360
v 1.514313 1.012325 1.182099
v 1.514313 0.866607 1.182099
v -0.999168 0.999977 0.722272
v -0.999168 -0.430754 0.722272
v -0.999168 0.999977 1.012779
v -0.999168 -0.430754 1.012779
v -1.429899 0.999977 0.722272
v -1.429899 -0.430754 0.722272
v -1.429899 0.999977 1.012779
v -1.429899 -0.430754 1.012779
v 1.995421 2.137672 -1.765236
v 1.995421 1.859885 -1.765236
v 1.995421 2.137672 1.488919
v 1.995421 1.859885 1.488919
v -2.037694 2.137672 -1.765236
v -2.037694 1.859885 -1.765236
v -2.037694 2.137672 1.488919
v -2.037694 1.859885 1.488919
v -0.266117 2.587696 -2.053121
v -0.266117 2.587696 -2.053121
v -0.266117 2.587696 -2.053121
v -0.266117 2.587696 -2.053121
v -0.266117 2.587696 -2.053121
v -0.266117 2.587696 -2.053121
v -0.266117 2.587696 -2.053121
v -0.266117 2.587696 -2.053121
v 1.456200 1.833528 -1.518435
v 1.314672 0.905387 -1.324895
v 1.456200 1.833528 -1.243380
v 1.314672 0.905387 -1.049840
v 0.919538 1.833528 -1.518435
v 0.778011 0.905387 -1.324895
v 0.919538 1.833528 -1.243380
v 0.778011 0.905387 -1.049840
v 1.540638 1.012325 -1.474360
v 1.540638 0.866607 -1.474360
v 1.540638 1.012325 1.182099
v 1.540638 0.866607 1.182099
v -1.633659 1.012325 -1.474360
v -1.633659 0.866607 -1.474360
v -1.633659 1.012325 1.182099
v -1.633659 0.866607 1.182099
v 0.879822 0.999977 -1.069932
v 0.879822 -0.430754 -1.069932
v 0.879822 0.999977 -1.360439
v 0.879822 -0.430754 -1.360439
v 1.310553 0.999977 -1.069932
v 1.310553 -0.430754 -1.069932
v 1.310553 0.999977 -1.360439
v 1.310553 -0.430754 -1.360439
v -2.114767 2.137672 1.417576
v -2.114767 1.859885 1.417576
v -2.114767 2.137672 -1.836579
v -2.114767 1.859885 -1.836579
v 1.918348 2.137672 1.417576
v 1.918348 1.859885 1.417576
v 1.918348 2.137672 -1.836579
v 1.918348 1.859885 -1.836579
v 0.146771 2.587696 1.705461
v 0.146771 2.587696 1.705461
v 0.146771 2.587696 1.705461
v 0.146771 2.587696 1.705461
v 0.146771 2.587696 1.705461
v 0.146771 2.587696 1.705461
v 0.146771 2.587696 1.705461
v 0.146771 2.587696 1.705461
v -1.575546 1.833529 1.170775
v -1.434018 0.905387 0.977236
v -1.575546 1.833529 0.895720
v -1.434018 0.905387 0.702181
v -1.038885 1.833529 1.170775
v -0.897357 0.905387 0.977236
v -1.038885 1.833529 0.895720
v -0.897357 0.905387 0.702181
v -1.659984 1.012326 1.126700
v -1.659984 0.866607 1.126700
v -1.659984 1.012325 -1.529758
v -1.659984 0.866607 -1.529758
v 1.514313 1.012326 1.126700
v 1.514313 0.866607 1.126700
v 1.514313 1.012325 -1.529758
v 1.514313 0.866607 -1.529758
v -0.999168 0.999977 -1.069932
v -0.999168 -0.430754 -1.069932
v -0.999168 0.999977 -1.360439
v -0.999168 -0.430754 -1.360439
v -1.429899 0.999977 -1.069932
v -1.429899 -0.430754 -1.069932
v -1.429899 0.999977 -1.360439
v -1.429899 -0.430754 -1.360439
v 1.995421 2.137672 1.417576
v 1.995421 1.859885 1.417576
v 1.995421 2.137672 -1.836579
v 1.995421 1.859885 -1.836579
v -2.037694 2.137672 1.417576
v -2.037694 1.859885 1.417576
v -2.037694 2.137672 -1.836579
v -2.037694 1.859885 -1.836579
v -0.266117 2.587696 1.705461
v -0.266117 2.587696 1.705461
v -0.266117 2.587696 1.705461
v -0.266117 2.587696 1.705461
v -0.266117 2.587696 1.705461
v -0.266117 2.587696 1.705461
v -0.266117 2.587696 1.705461
v -0.266117 2.587696 1.705461
v 1.456200 1.833529 1.170775
v 1.314672 0.905387 0.977236
v 1.456200 1.833529 0.895720
v 1.314672 0.905387 0.702181
v 0.919538 1.833529 1.170775
v 0.778011 0.905387 0.977236
v 0.919538 1.833529 0.895720
v 0.778011 0.905387 0.702181
v 1.540638 1.012326 1.126700
v 1.540638 0.866607 1.126700
v 1.540638 1.012325 -1.529758
v 1.540638 0.866607 -1.529758
v -1.633659 1.012326 1.126700
v -1.633659 0.866607 1.126700
v -1.633659 1.012325 -1.529758
v -1.633659 0.866607 -1.529758
vn -1.0000 -0.0000 -0.0000
vn -0.0000 -0.0000 1.0000
vn 1.0000 -0.0000 -0.0000
vn -0.0000 -0.0000 -1.0000
vn -0.0000 1.0000 -0.0000
vn -0.0000 -1.0000 -0.0000
vn -0.9886 -0.1507 -0.0000
vn -0.0000 0.2041 0.9789
vn 0.9886 0.1507 -0.0000
vn -0.0000 -0.2041 -0.9789
vn 0.9886 -0.1507 -0.0000
vn -0.9886 0.1507 -0.0000
vn -0.0000 0.2041 -0.9789
vn -0.0000 -0.2041 0.9789
vt 0.375000 0.000000
vt 0.625000 0.000000
vt 0.625000 0.250000
vt 0.375000 0.250000
vt 0.625000 0.500000
vt 0.375000 0.500000
vt 0.625000 0.750000
vt 0.375000 0.750000
vt 0.875000 0.750000
vt 0.125000 0.500000
vt 0.125000 0.750000
vt 0.875000 0.500000
vt 0.625000 1.000000
vt 0.375000 1.000000
s 0
f 1/1/1 2/2/1 4/3/1 3/4/1
f 3/4/2 4/3/2 8/5/2 7/6/2
f 7/6/3 8/5/3 6/7/3 5/8/3
f 5/8/4 6/7/4 2/9/4 1/1/4
f 3/10/5 7/6/5 5/8/5 1/11/5
f 8/5/6 4/12/6 2/9/6 6/7/6
f 9/1/1 10/2/1 12/3/1 11/4/1
f 11/4/2 12/3/2 16/5/2 15/6/2
f 15/6/3 16/5/3 14/7/3 13/8/3
f 13/8/4 14/7/4 10/13/4 9/14/4
f 11/10/5 15/6/5 13/8/5 9/11/5
f 16/5/6 12/12/6 10/9/6 14/7/6
f 17/1/6 18/2/6 20/3/6 19/4/6
f 19/4/6 20/3/6 24/5/6 23/6/6
f 23/6/6 24/5/6 22/7/6 21/8/6
f 21/8/6 22/7/6 18/13/6 17/14/6
f 19/10/6 23/6/6 21/8/6 17/11/6
f 24/5/6 20/12/6 18/9/6 22/7/6
f 25/1/7 26/2/7 28/3/7 27/4/7
f 27/4/8 28/3/8 32/5/8 31/6/8
f 31/6/9 32/5/9 30/7/9 29/8/9
f 29/8/10 30/7/10 26/13/10 25/14/10
f 27/10/5 31/6/5 29/8/5 25/11/5
f 32/5/6 28/12/6 26/9/6 30/7/6
f 33/1/1 34/2/1 36/3/1 35/4/1
f 35/4/2 36/3/2 40/5/2 39/6/2
f 39/6/3 40/5/3 38/7/3 37/8/3
f 37/8/4 38/7/4 34/13/4 33/14/4
f 35/10/5 39/6/5 37/8/5 33/11/5
f 40/5/6 36/12/6 34/9/6 38/7/6
f 41/1/3 43/4/3 44/3/3 42/2/3
f 43/4/2 47/6/2 48/5/2 44/3/2
f 47/6/1 45/8/1 46/7/1 48/5/1
f 45/8/4 41/1/4 42/9/4 46/7/4
f 43/10/5 41/11/5 45/8/5 47/6/5
f 48/5/6 46/7/6 42/9/6 44/12/6
f 49/1/3 51/4/3 52/3/3 50/2/3
f 51/4/2 55/6/2 56/5/2 52/3/2
f 55/6/1 53/8/1 54/7/1 56/5/1
f 53/8/4 49/14/4 50/13/4 54/7/4
f 51/10/5 49/11/5 53/8/5 55/6/5
f 56/5/6 54/7/6 50/9/6 52/12/6
f 57/1/6 59/4/6 60/3/6 58/2/6
f 59/4/6 63/6/6 64/5/6 60/3/6
f 63/6/6 61/8/6 62/7/6 64/5/6
f 61/8/6 57/14/6 58/13/6 62/7/6
f 59/10/6 57/11/6 61/8/6 63/6/6
f 64/5/6 62/7/6 58/9/6 60/12/6
f 65/1/11 67/4/11 68/3/11 66/2/11
f 67/4/8 71/6/8 72/5/8 68/3/8
f 71/6/12 69/8/12 70/7/12 72/5/12
f 69/8/10 65/14/10 66/13/10 70/7/10
f 67/10/5 65/11/5 69/8/5 71/6/5
f 72/5/6 70/7/6 66/9/6 68/12/6
f 73/1/3 75/4/3 76/3/3 74/2/3
f 75/4/2 79/6/2 80/5/2 76/3/2
f 79/6/1 77/8/1 78/7/1 80/5/1
f 77/8/4 73/14/4 74/13/4 78/7/4
f 75/10/5 73/11/5 77/8/5 79/6/5
f 80/5/6 78/7/6 74/9/6 76/12/6
f 81/1/1 83/4/1 84/3/1 82/2/1
f 83/4/4 87/6/4 88/5/4 84/3/4
f 87/6/3 85/8/3 86/7/3 88/5/3
f 85/8/2 81/1/2 82/9/2 86/7/2
f 83/10/5 81/11/5 85/8/5 87/6/5
f 88/5/6 86/7/6 82/9/6 84/12/6
f 89/1/1 91/4/1 92/3/1 90/2/1
f 91/4/4 95/6/4 96/5/4 92/3/4
f 95/6/3 93/8/3 94/7/3 96/5/3
f 93/8/2 89/14/2 90/13/2 94/7/2
f 91/10/5 89/11/5 93/8/5 95/6/5
f 96/5/6 94/7/6 90/9/6 92/12/6
f 97/1/6 99/4/6 100/3/6 98/2/6
f 99/4/6 103/6/6 104/5/6 100/3/6
f 103/6/6 101/8/6 102/7/6 104/5/6
f 101/8/6 97/14/6 98/13/6 102/7/6
f 99/10/6 97/11/6 101/8/6 103/6/6
f 104/5/6 102/7/6 98/9/6 100/12/6
f 105/1/7 107/4/7 108/3/7 106/2/7
f 107/4/13 111/6/13 112/5/13 108/3/13
f 111/6/9 109/8/9 110/7/9 112/5/9
f 109/8/14 105/14/14 106/13/14 110/7/14
f 107/10/5 105/11/5 109/8/5 111/6/5
f 112/5/6 110/7/6 106/9/6 108/12/6
f 113/1/1 115/4/1 116/3/1 114/2/1
f 115/4/4 119/6/4 120/5/4 116/3/4
f 119/6/3 117/8/3 118/7/3 120/5/3
f 117/8/2 113/14/2 114/13/2 118/7/2
f 115/10/5 113/11/5 117/8/5 119/6/5
f 120/5/6 118/7/6 114/9/6 116/12/6
f 121/1/3 122/2/3 124/3/3 123/4/3
f 123/4/4 124/3/4 128/5/4 127/6/4
f 127/6/1 128/5/1 126/7/1 125/8/1
f 125/8/2 126/7/2 122/9/2 121/1/2
f 123/10/5 127/6/5 125/8/5 121/11/5
f 128/5/6 124/12/6 122/9/6 126/7/6
f 129/1/3 130/2/3 132/3/3 131/4/3
f 131/4/4 132/3/4 136/5/4 135/6/4
f 135/6/1 136/5/1 134/7/1 133/8/1
f 133/8/2 134/7/2 130/13/2 129/14/2
f 131/10/5 135/6/5 133/8/5 129/11/5
f 136/5/6 132/12/6 130/9/6 134/7/6
f 137/1/6 138/2/6 140/3/6 139/4/6
f 139/4/6 140/3/6 144/5/6 143/6/6
f 143/6/6 144/5/6 142/7/6 141/8/6
f 141/8/6 142/7/6 138/13/6 137/14/6
f 139/10/6 143/6/6 141/8/6 137/11/6
f 144/5/6 140/12/6 138/9/6 142/7/6
f 145/1/11 146/2/11 148/3/11 147/4/11
f 147/4/13 148/3/13 152/5/13 151/6/13
f 151/6/12 152/5/12 150/7/12 149/8/12
f 149/8/14 150/7/14 146/13/14 145/14/14
f 147/10/5 151/6/5 149/8/5 145/11/5
f 152/5/6 148/12/6 146/9/6 150/7/6
f 153/1/3 154/2/3 156/3/3 155/4/3
f 155/4/4 156/3/4 160/5/4 159/6/4
f 159/6/1 160/5/1 158/7/1 157/8/1
f 157/8/2 158/7/2 154/13/2 153/14/2
f 155/10/5 159/6/5 157/8/5 153/11/5
f 160/5/6 156/12/6 154/9/6 158/7/6
o collider-col
v 1.938686 1.954357 1.416125
v 1.938686 -0.343752 1.416126
v 1.938686 1.954356 -1.753216
v 1.938686 -0.343752 -1.753215
v -2.058534 1.954356 1.416125
v -2.058534 -0.343752 1.416126
v -2.058534 1.954356 -1.753216
v -2.058534 -0.343753 -1.753215
vn 1.0000 -0.0000 -0.0000
vn -0.0000 -0.0000 -1.0000
vn -1.0000 -0.0000 -0.0000
vn -0.0000 -0.0000 1.0000
vn -0.0000 1.0000 -0.0000
vn -0.0000 -1.0000 -0.0000
vt 0.375000 0.000000
vt 0.625000 0.000000
vt 0.625000 0.250000
vt 0.375000 0.250000
vt 0.625000 0.500000
vt 0.375000 0.500000
vt 0.625000 0.750000
vt 0.375000 0.750000
vt 0.625000 1.000000
vt 0.375000 1.000000
vt 0.125000 0.500000
vt 0.125000 0.750000
vt 0.875000 0.500000
vt 0.875000 0.750000
s 0
f 161/15/15 162/16/15 164/17/15 163/18/15
f 163/18/16 164/17/16 168/19/16 167/20/16
f 167/20/17 168/19/17 166/21/17 165/22/17
f 165/22/18 166/21/18 162/23/18 161/24/18
f 163/25/19 167/20/19 165/22/19 161/26/19
f 168/19/20 164/27/20 162/28/20 166/21/20
